# Blender v3.1.2 OBJ File: ''
# www.blender.org
mtllib rock.mtl
o Rock_3_메쉬
v 0.245917 0.506601 -0.036191
v 0.348968 0.186990 0.247901
v 0.252518 0.298625 -0.258846
v 0.269467 0.410785 -0.120562
v 0.311105 0.379971 0.078136
v 0.247465 0.467138 -0.099303
v 0.218321 0.255850 -0.280310
v 0.097832 0.258646 -0.304994
v 0.176724 0.632770 -0.166601
v 0.047111 0.756655 -0.052374
v 0.188450 0.676505 -0.079460
v 0.116527 0.719300 0.246650
v 0.205677 0.654787 0.042005
v 0.275213 0.391012 0.235777
v 0.337409 0.000094 0.296231
v 0.388414 0.000034 0.307239
v 0.444498 0.178639 0.091537
v 0.459916 0.108853 -0.103935
v 0.510980 0.000084 -0.078585
v 0.448881 0.000071 -0.148161
v 0.294080 0.000096 -0.243845
v 0.376423 0.149754 -0.185465
v 0.216708 0.089028 -0.276923
v 0.263569 0.060448 -0.259265
v 0.218028 -0.000026 -0.313773
v 0.209542 0.071578 -0.296854
v 0.007352 0.716566 -0.182420
v -0.001010 0.474851 -0.289820
v -0.013622 0.475397 -0.302485
v -0.003343 0.349245 -0.362178
v 0.075810 -0.000140 -0.437391
v 0.112411 0.000100 -0.375462
v -0.334290 0.374339 -0.379123
v -0.225775 0.591134 -0.202143
v -0.224068 0.582052 -0.223181
v -0.399136 0.369950 -0.304182
v -0.466081 0.229251 -0.230249
v -0.447002 0.000061 -0.276952
v -0.430484 0.000029 -0.056557
v -0.463750 0.224189 -0.058018
v -0.379068 0.533649 -0.072301
v -0.423323 0.464044 -0.045714
v -0.524209 0.141817 -0.011478
v -0.376177 0.557667 -0.036353
v -0.500900 0.191150 0.217469
v -0.483348 0.249431 0.244571
v -0.449741 -0.000076 0.363051
v -0.357654 0.688730 0.204865
v -0.340119 0.761100 0.143369
v -0.425438 0.440880 0.151724
v -0.319751 0.732881 -0.097347
v -0.370312 0.549839 -0.102752
v -0.306429 0.787605 0.151187
v -0.278774 0.509156 0.348192
v -0.362200 -0.000080 0.424915
v -0.484238 0.145809 0.284258
v -0.095499 0.412491 0.393841
v -0.020992 -0.000134 0.471833
v 0.283982 -0.000010 0.335120
v 0.318659 0.216308 0.246211
v 0.030636 0.516186 0.366393
v 0.043078 -0.000018 0.454582
v 0.003324 0.549567 0.348749
v -0.091671 0.440927 0.383609
v -0.259058 0.530853 0.342269
v 0.097218 0.692558 0.289983
v 0.120599 0.681203 0.283781
v 0.093996 0.721471 0.259442
v -0.030706 0.848820 0.074449
v -0.029658 0.853888 0.014295
v 0.005959 0.808373 -0.054883
v 0.026634 0.766925 0.132773
v -0.013954 0.800318 -0.121867
v 0.036433 0.706409 -0.169099
v -0.099408 0.851304 -0.067759
v -0.273909 0.704611 -0.141626
v -0.245838 0.820549 -0.064371
v -0.096397 0.835527 0.087225
v -0.146314 0.821989 0.098916
v -0.124092 0.833062 0.062284
v -0.087616 0.840701 0.059271
v -0.128949 0.804218 0.125148
v -0.168991 0.793334 0.137277
v -0.315426 0.765343 0.174369
v -0.149114 0.791199 0.131876
v -0.125583 0.813698 0.093829
v 0.009757 0.749565 0.153463
v -0.333890 0.688156 0.234960
v -0.475352 0.232546 0.270603
v -0.156159 0.751991 0.166808
v 0.489540 -0.000098 0.216743
v 0.464029 0.161986 0.031875
v 0.524209 0.000011 0.075311
v 0.268582 0.264722 -0.243608
v 0.475584 0.135078 -0.034112
v 0.360499 0.244789 0.155450
v 0.202339 0.352910 -0.256683
v -0.283634 -0.000004 -0.471833
v -0.499795 0.000005 -0.040923
vt 0.644225 0.364934
vt 0.618350 0.264275
vt 0.711893 0.330872
vt 0.689069 0.359103
vt 0.606700 0.172144
vt 0.561918 0.129256
vt 0.619929 0.012101
vt 0.543483 0.023498
vt 0.811304 0.284453
vt 0.841608 0.303420
vt 0.809607 0.306471
vt 0.808294 0.188717
vt 0.921313 0.232670
vt 0.890211 0.352516
vt 0.906039 0.234940
vt 0.075748 0.918759
vt 0.009125 0.819921
vt 0.169997 0.977257
vt 0.619274 0.757526
vt 0.573140 0.747900
vt 0.622759 0.736480
vt 0.684333 0.758224
vt 0.721235 0.790138
vt 0.652909 0.835356
vt 0.517342 0.037154
vt 0.552618 0.150605
vt 0.480393 0.043836
vt 0.695096 0.124534
vt 0.661477 0.127972
vt 0.732378 0.121485
vt 0.784334 0.065552
vt 0.773590 0.128304
vt 0.897037 0.203529
vt 0.826359 0.099691
vt 0.900746 0.170466
vt 0.031138 0.797335
vt 0.141319 0.916719
vt 0.289534 0.971725
vt 0.374095 0.942036
vt 0.296109 0.978430
vt 0.684622 0.512744
vt 0.688288 0.535805
vt 0.649674 0.526389
vt 0.870934 0.383877
vt 0.864828 0.510576
vt 0.828094 0.426525
vt 0.852758 0.529244
vt 0.775572 0.548913
vt 0.740610 0.636339
vt 0.712594 0.647514
vt 0.711568 0.635975
vt 0.719952 0.644031
vt 0.896881 0.531504
vt 0.818062 0.664719
vt 0.866166 0.540083
vt 0.724861 0.785363
vt 0.794806 0.771666
vt 0.737304 0.785479
vt 0.713173 0.696970
vt 0.835286 0.741858
vt 0.699038 0.750743
vt 0.683464 0.686386
vt 0.663781 0.729956
vt 0.667969 0.697956
vt 0.647425 0.725191
vt 0.629113 0.696925
vt 0.659102 0.698636
vt 0.673070 0.688466
vt 0.661399 0.687856
vt 0.672981 0.682333
vt 0.687800 0.680946
vt 0.688660 0.676316
vt 0.628029 0.895823
vt 0.755277 0.910125
vt 0.792374 0.969175
vt 0.603234 0.815660
vt 0.574309 0.893419
vt 0.804015 0.347282
vt 0.564814 0.807626
vt 0.476285 0.863992
vt 0.412316 0.784667
vt 0.488185 0.714822
vt 0.996559 0.253850
vt 0.736730 0.791605
vt 0.897517 0.985989
vt 0.702161 0.029624
vt 0.946980 0.205643
vt 0.601545 0.722851
vt 0.265898 0.852552
vt 0.176651 0.969231
vt 0.176786 0.712362
vt 0.330614 0.780658
vt 0.300850 0.846388
vt 0.613499 0.618516
vt 0.571777 0.600695
vt 0.395396 0.677917
vt 0.294685 0.690297
vt 0.853235 0.360649
vt 0.789143 0.423140
vt 0.725284 0.497391
vt 0.636585 0.606696
vt 0.961203 0.538932
vt 0.983679 0.608796
vt 0.742113 0.646404
vt 0.641757 0.646343
vt 0.849849 0.741924
vt 0.969834 0.856733
vt 0.806634 0.784561
vt 0.810401 0.673515
vt 0.406303 0.777071
vt 0.395302 0.927661
vt 0.573733 0.727556
vt 0.990581 0.792831
vn 0.9456 0.3181 -0.0684
vn 0.7791 0.5559 0.2898
vn 0.8538 0.3891 -0.3458
vn 0.8776 0.3650 -0.3107
vn 0.7940 0.5546 0.2490
vn 0.3947 0.4651 0.7924
vn 0.7840 0.4190 0.4580
vn 0.3312 0.3302 0.8839
vn 0.7686 0.2427 -0.5919
vn 0.3501 0.1010 -0.9313
vn 0.6426 0.2678 -0.7179
vn 0.6826 0.3321 -0.6510
vn 0.5812 0.3140 -0.7507
vn 0.3649 0.2360 -0.9006
vn 0.4959 0.2632 -0.8275
vn 0.6670 0.2816 -0.6898
vn 0.5034 0.4679 -0.7264
vn 0.6487 0.7448 -0.1564
vn 0.5357 0.5585 -0.6333
vn 0.6540 0.7298 -0.1994
vn 0.3754 0.8641 0.3352
vn 0.5439 0.7681 0.3379
vn 0.8209 0.5694 0.0432
vn 0.2650 0.2570 0.9294
vn 0.5316 0.4216 0.7346
vn 0.5285 0.1999 0.8250
vn 0.8125 0.5820 -0.0330
vn 0.7684 0.6112 0.1897
vn 0.8518 0.4700 -0.2314
vn 0.8959 0.2814 -0.3439
vn 0.7772 0.3977 -0.4876
vn 0.5415 0.1209 -0.8320
vn 0.6690 0.1405 -0.7299
vn 0.5653 0.0992 -0.8189
vn 0.5222 0.2970 -0.7994
vn 0.4460 0.3697 -0.8151
vn -0.1094 0.8207 -0.5607
vn -0.8657 0.3717 -0.3353
vn -0.2955 0.6271 -0.7207
vn -0.9352 0.3351 -0.1147
vn -0.9430 0.3259 -0.0670
vn -0.8275 -0.0989 -0.5527
vn -0.9855 0.0798 0.1498
vn -0.9201 0.0239 -0.3910
vn -0.9098 0.2608 0.3227
vn -0.9563 0.2917 -0.0191
vn -0.8472 0.3959 0.3543
vn -0.3737 0.8644 0.3364
vn -0.8320 0.5454 0.1017
vn -0.3185 0.6861 0.6541
vn -0.8813 0.0450 0.4705
vn -0.4294 0.2786 0.8591
vn -0.7559 0.1959 0.6246
vn -0.0980 0.7973 0.5956
vn -0.2464 0.5120 0.8229
vn -0.0505 0.6096 0.7911
vn 0.0911 0.6036 0.7921
vn -0.0834 0.4334 0.8974
vn -0.0701 0.7757 0.6271
vn -0.2277 0.7939 0.5638
vn 0.3336 0.8772 0.3452
vn -0.2197 0.8911 0.3972
vn 0.3878 0.9217 -0.0043
vn -0.0437 0.9072 -0.4183
vn -0.2078 0.9687 0.1358
vn -0.1104 0.8998 0.4221
vn -0.1932 0.9610 0.1978
vn 0.1134 0.8889 0.4438
vn 0.0567 0.7179 0.6938
vn 0.1505 0.6828 0.7149
vn 0.8700 0.2729 0.4108
vn 0.7237 0.6505 -0.2307
vn 0.4282 0.3838 -0.8182
vn 0.5878 0.4645 -0.6624
vn 0.5864 0.4580 0.6681
vn 0.9300 0.3529 0.1025
vn 0.5614 0.2273 -0.7957
vn 0.3071 0.7263 -0.6150
vn -0.4036 0.3944 -0.8255
vn 0.4018 0.6457 -0.6493
vn -0.3263 0.1798 -0.9280
vn -0.9580 0.0952 -0.2704
vn -0.8180 0.3561 -0.4518
vn -0.3616 0.4118 -0.8365
vn -0.8687 -0.0740 -0.4897
vn -0.9300 -0.0154 -0.3672
vn -0.8890 0.1143 -0.4434
vn -0.8913 0.3057 -0.3349
vn -0.6945 0.4907 -0.5263
vn -0.8013 0.0983 0.5901
vn -0.4022 0.2044 0.8924
vn -0.3297 0.5197 0.7881
vn -0.3715 0.8359 -0.4041
vn -0.0316 0.2306 0.9725
vn 0.2895 0.1801 0.9401
vn 0.2054 0.2680 0.9413
vn -0.1672 0.4492 0.8777
vn 0.2930 0.5412 -0.7882
vn 0.0068 0.1784 0.9839
usemtl 31
s 1
f 1/1/1 5/2/2 4/3/3
f 6/4/4 1/1/1 4/3/3
f 96/5/5 5/2/2 2/6/6
f 91/7/7 2/6/6 16/8/8
f 94/9/9 7/10/10 3/11/11
f 94/9/9 22/12/12 7/10/10
f 26/13/13 8/14/14 23/15/15
f 8/16/14 32/17/16 28/18/17
f 10/19/18 74/20/19 71/21/20
f 71/21/20 72/22/21 10/19/18
f 12/23/22 13/24/23 72/22/21
f 15/25/24 60/26/25 59/27/26
f 92/28/27 96/5/5 17/29/28
f 95/30/29 19/31/30 18/32/31
f 18/32/31 22/12/12 95/30/29
f 24/33/32 20/34/33 21/35/34
f 23/15/15 24/33/32 26/13/13
f 31/36/35 30/37/36 32/17/16
f 35/38/37 52/39/38 34/40/39
f 41/41/40 44/42/41 52/43/38
f 99/44/42 45/45/43 43/46/44
f 46/47/45 50/48/46 45/45/43
f 46/47/45 48/49/47 50/48/46
f 53/50/48 49/51/49 84/52/50
f 56/53/51 54/54/52 89/55/53
f 68/56/54 63/57/55 66/58/56
f 90/59/57 64/60/58 87/61/59
f 82/62/60 69/63/61 78/64/62
f 70/65/63 75/66/64 81/67/65
f 72/22/21 90/59/57 87/61/59
f 86/68/66 80/69/67 79/70/68
f 85/71/69 90/59/57 82/62/60
f 83/72/70 90/59/57 85/71/69
f 92/28/27 94/9/9 96/5/5
f 60/26/25 5/2/2 1/1/1
f 1/73/1 14/74/71 60/75/25
f 11/76/72 1/73/1 6/77/4
f 15/25/24 2/6/6 60/26/25
f 17/29/28 2/6/6 91/7/7
f 4/3/3 97/78/73 6/4/4
f 97/78/73 7/10/10 8/14/14
f 9/79/74 6/77/4 97/80/73
f 23/15/15 7/10/10 24/33/32
f 22/12/12 24/33/32 7/10/10
f 74/20/19 97/80/73 8/81/14
f 28/82/17 74/20/19 8/81/14
f 26/13/13 32/83/16 8/14/14
f 11/76/72 74/20/19 10/19/18
f 13/24/23 67/84/75 14/74/71
f 87/61/59 12/23/22 72/22/21
f 68/56/54 67/84/75 12/23/22
f 59/85/26 14/74/71 67/84/75
f 93/86/76 17/29/28 91/7/7
f 18/32/31 20/34/33 22/12/12
f 93/86/76 95/30/29 92/28/27
f 25/87/77 24/33/32 21/35/34
f 74/20/19 73/88/78 71/21/20
f 30/37/36 28/18/17 32/17/16
f 28/18/17 35/38/37 34/40/39
f 33/89/79 29/90/80 30/37/36
f 98/91/81 30/37/36 31/36/35
f 37/92/82 33/89/79 98/91/81
f 35/38/37 36/93/83 52/39/38
f 52/43/38 76/94/84 34/95/39
f 39/96/85 37/92/82 38/97/86
f 39/98/85 43/46/44 40/99/87
f 40/99/87 42/100/88 41/41/40
f 44/42/41 42/100/88 50/48/46
f 48/49/47 44/42/41 50/48/46
f 51/101/89 44/42/41 49/51/49
f 89/55/53 45/45/43 56/53/51
f 56/53/51 99/44/42 47/102/90
f 46/47/45 54/54/52 48/49/47
f 56/53/51 55/103/91 54/54/52
f 84/52/50 48/49/47 88/104/92
f 54/54/52 88/104/92 48/49/47
f 49/51/49 77/105/93 51/101/89
f 79/70/68 77/105/93 53/50/48
f 53/50/48 83/72/70 79/70/68
f 55/103/91 57/106/94 54/54/52
f 64/60/58 54/54/52 57/106/94
f 57/106/94 62/107/95 61/108/96
f 61/108/96 64/60/58 57/106/94
f 67/84/75 63/57/55 61/108/96
f 90/59/57 65/109/97 64/60/58
f 70/65/63 72/22/21 71/21/20
f 72/22/21 82/62/60 90/59/57
f 81/67/65 69/63/61 70/65/63
f 71/21/20 75/66/64 70/65/63
f 80/69/67 75/66/64 77/105/93
f 78/64/62 80/69/67 86/68/66
f 86/68/66 82/62/60 78/64/62
f 13/24/23 10/19/18 72/22/21
f 92/28/27 22/12/12 94/9/9
f 43/46/44 50/48/46 42/100/88
f 63/57/55 87/61/59 64/60/58
f 85/71/69 79/70/68 83/72/70
f 90/59/57 84/52/50 88/104/92
f 94/9/9 5/2/2 96/5/5
f 3/11/11 4/3/3 94/9/9
f 40/110/87 36/93/83 37/92/82
f 52/39/38 36/93/83 41/111/40
f 37/92/82 98/91/81 38/97/86
f 61/108/96 59/85/26 67/84/75
f 34/95/39 27/112/98 28/82/17
f 76/94/84 73/88/78 27/112/98
f 77/105/93 73/88/78 51/101/89
f 60/26/25 2/6/6 5/2/2
f 1/73/1 13/24/23 14/74/71
f 11/76/72 13/24/23 1/73/1
f 15/25/24 16/8/8 2/6/6
f 17/29/28 96/5/5 2/6/6
f 4/3/3 3/11/11 97/78/73
f 97/78/73 3/11/11 7/10/10
f 9/79/74 11/76/72 6/77/4
f 23/15/15 8/14/14 7/10/10
f 22/12/12 20/34/33 24/33/32
f 74/20/19 9/79/74 97/80/73
f 28/82/17 27/112/98 74/20/19
f 26/13/13 25/87/77 32/83/16
f 11/76/72 9/79/74 74/20/19
f 13/24/23 12/23/22 67/84/75
f 87/61/59 68/56/54 12/23/22
f 68/56/54 66/58/56 67/84/75
f 59/85/26 60/75/25 14/74/71
f 93/86/76 92/28/27 17/29/28
f 18/32/31 19/31/30 20/34/33
f 93/86/76 19/31/30 95/30/29
f 25/87/77 26/13/13 24/33/32
f 74/20/19 27/112/98 73/88/78
f 30/37/36 29/90/80 28/18/17
f 28/18/17 29/90/80 35/38/37
f 33/89/79 35/38/37 29/90/80
f 98/91/81 33/89/79 30/37/36
f 37/92/82 36/93/83 33/89/79
f 35/38/37 33/89/79 36/93/83
f 52/43/38 51/101/89 76/94/84
f 39/96/85 40/110/87 37/92/82
f 39/98/85 99/44/42 43/46/44
f 40/99/87 43/46/44 42/100/88
f 44/42/41 41/41/40 42/100/88
f 48/49/47 49/51/49 44/42/41
f 51/101/89 52/43/38 44/42/41
f 89/55/53 46/47/45 45/45/43
f 56/53/51 45/45/43 99/44/42
f 46/47/45 89/55/53 54/54/52
f 56/53/51 47/102/90 55/103/91
f 84/52/50 49/51/49 48/49/47
f 54/54/52 65/109/97 88/104/92
f 49/51/49 53/50/48 77/105/93
f 79/70/68 80/69/67 77/105/93
f 53/50/48 84/52/50 83/72/70
f 55/103/91 58/113/99 57/106/94
f 64/60/58 65/109/97 54/54/52
f 57/106/94 58/113/99 62/107/95
f 61/108/96 63/57/55 64/60/58
f 67/84/75 66/58/56 63/57/55
f 90/59/57 88/104/92 65/109/97
f 70/65/63 69/63/61 72/22/21
f 72/22/21 69/63/61 82/62/60
f 81/67/65 78/64/62 69/63/61
f 71/21/20 73/88/78 75/66/64
f 80/69/67 81/67/65 75/66/64
f 78/64/62 81/67/65 80/69/67
f 86/68/66 85/71/69 82/62/60
f 13/24/23 11/76/72 10/19/18
f 92/28/27 95/30/29 22/12/12
f 43/46/44 45/45/43 50/48/46
f 63/57/55 68/56/54 87/61/59
f 85/71/69 86/68/66 79/70/68
f 90/59/57 83/72/70 84/52/50
f 94/9/9 4/3/3 5/2/2
f 40/110/87 41/111/40 36/93/83
f 61/108/96 62/107/95 59/85/26
f 34/95/39 76/94/84 27/112/98
f 76/94/84 51/101/89 73/88/78
f 77/105/93 75/66/64 73/88/78
